<mxfile host="65bd71144e">
    <diagram id="HkoN10MVfY5_M1-_J-7j" name="Страница 1">
        <mxGraphModel dx="820" dy="281" grid="1" gridSize="10" guides="1" tooltips="1" connect="1" arrows="1" fold="1" page="1" pageScale="1" pageWidth="827" pageHeight="1169" math="0" shadow="0">
            <root>
                <mxCell id="0"/>
                <mxCell id="1" parent="0"/>
                <mxCell id="2" value="START Function" style="rounded=1;whiteSpace=wrap;html=1;" parent="1" vertex="1">
                    <mxGeometry x="280" y="30" width="120" height="60" as="geometry"/>
                </mxCell>
                <mxCell id="5" value="print ThreeCharactersArray[i];" style="rounded=1;whiteSpace=wrap;html=1;" parent="1" vertex="1">
                    <mxGeometry x="260" y="879" width="160" height="60" as="geometry"/>
                </mxCell>
                <mxCell id="12" value="function &quot;CreateNewlyFormedArray&quot;" style="rounded=1;whiteSpace=wrap;html=1;" parent="1" vertex="1">
                    <mxGeometry x="250" y="140" width="180" height="60" as="geometry"/>
                </mxCell>
                <mxCell id="15" value="" style="endArrow=classic;html=1;exitX=0.5;exitY=1;exitDx=0;exitDy=0;" parent="1" source="2" target="12" edge="1">
                    <mxGeometry relative="1" as="geometry">
                        <mxPoint x="310" y="140" as="sourcePoint"/>
                        <mxPoint x="410" y="140" as="targetPoint"/>
                    </mxGeometry>
                </mxCell>
                <mxCell id="18" value="string array[ ];" style="rounded=1;whiteSpace=wrap;html=1;" parent="1" vertex="1">
                    <mxGeometry x="280" y="240" width="120" height="60" as="geometry"/>
                </mxCell>
                <mxCell id="22" value="&lt;span style=&quot;font-family: &amp;#34;helvetica&amp;#34;&quot;&gt;FOR &lt;br&gt;(i = 0; i &amp;lt; array.length; i++)&lt;/span&gt;" style="rhombus;whiteSpace=wrap;html=1;" parent="1" vertex="1">
                    <mxGeometry x="235" y="350" width="210" height="130" as="geometry"/>
                </mxCell>
                <mxCell id="23" value="if (array[i].length &amp;lt;= 3)" style="rhombus;whiteSpace=wrap;html=1;" parent="1" vertex="1">
                    <mxGeometry x="251" y="539" width="180" height="120" as="geometry"/>
                </mxCell>
                <mxCell id="24" value="string new array &quot;ThreeCharactersArray&quot;&amp;nbsp;" style="rounded=1;whiteSpace=wrap;html=1;" parent="1" vertex="1">
                    <mxGeometry x="270" y="699" width="140" height="60" as="geometry"/>
                </mxCell>
                <mxCell id="25" value="ThreeCharactersArray[i] = array[i];" style="rounded=1;whiteSpace=wrap;html=1;" parent="1" vertex="1">
                    <mxGeometry x="260" y="789" width="160" height="60" as="geometry"/>
                </mxCell>
                <mxCell id="26" value="" style="endArrow=classic;html=1;" parent="1" target="18" edge="1">
                    <mxGeometry relative="1" as="geometry">
                        <mxPoint x="340" y="199" as="sourcePoint"/>
                        <mxPoint x="339.76" y="249" as="targetPoint"/>
                        <Array as="points">
                            <mxPoint x="339.76" y="229"/>
                            <mxPoint x="339.76" y="239"/>
                        </Array>
                    </mxGeometry>
                </mxCell>
                <mxCell id="27" value="" style="endArrow=classic;html=1;exitX=0.5;exitY=1;exitDx=0;exitDy=0;" parent="1" source="18" target="22" edge="1">
                    <mxGeometry relative="1" as="geometry">
                        <mxPoint x="340" y="309" as="sourcePoint"/>
                        <mxPoint x="339.82000000000005" y="339" as="targetPoint"/>
                        <Array as="points">
                            <mxPoint x="339.76" y="319"/>
                            <mxPoint x="339.76" y="329"/>
                        </Array>
                    </mxGeometry>
                </mxCell>
                <mxCell id="29" value="" style="endArrow=classic;html=1;entryX=0;entryY=0.5;entryDx=0;entryDy=0;exitX=0;exitY=0.5;exitDx=0;exitDy=0;" parent="1" source="22" target="23" edge="1">
                    <mxGeometry relative="1" as="geometry">
                        <mxPoint x="-210" y="439" as="sourcePoint"/>
                        <mxPoint x="130" y="439" as="targetPoint"/>
                        <Array as="points">
                            <mxPoint x="200" y="414"/>
                            <mxPoint x="200" y="450"/>
                            <mxPoint x="200" y="599"/>
                        </Array>
                    </mxGeometry>
                </mxCell>
                <mxCell id="30" value="YES" style="edgeLabel;resizable=0;html=1;align=center;verticalAlign=middle;" parent="29" connectable="0" vertex="1">
                    <mxGeometry relative="1" as="geometry"/>
                </mxCell>
                <mxCell id="32" value="&lt;span&gt;END fuction&lt;/span&gt;" style="ellipse;whiteSpace=wrap;html=1;" parent="1" vertex="1">
                    <mxGeometry x="280" y="969" width="120" height="80" as="geometry"/>
                </mxCell>
                <mxCell id="33" value="" style="endArrow=classic;html=1;entryX=1;entryY=0.5;entryDx=0;entryDy=0;exitX=1;exitY=0.5;exitDx=0;exitDy=0;" parent="1" source="22" target="32" edge="1">
                    <mxGeometry relative="1" as="geometry">
                        <mxPoint x="40" y="399" as="sourcePoint"/>
                        <mxPoint x="200" y="399" as="targetPoint"/>
                        <Array as="points">
                            <mxPoint x="500" y="414"/>
                            <mxPoint x="500" y="1009"/>
                        </Array>
                    </mxGeometry>
                </mxCell>
                <mxCell id="34" value="NO" style="edgeLabel;resizable=0;html=1;align=center;verticalAlign=middle;" parent="33" connectable="0" vertex="1">
                    <mxGeometry relative="1" as="geometry"/>
                </mxCell>
                <mxCell id="40" value="" style="endArrow=classic;html=1;exitX=0.5;exitY=1;exitDx=0;exitDy=0;" parent="1" source="24" target="25" edge="1">
                    <mxGeometry width="50" height="50" relative="1" as="geometry">
                        <mxPoint x="350" y="669" as="sourcePoint"/>
                        <mxPoint x="350" y="709" as="targetPoint"/>
                    </mxGeometry>
                </mxCell>
                <mxCell id="41" value="" style="endArrow=classic;html=1;exitX=0.5;exitY=1;exitDx=0;exitDy=0;" parent="1" source="25" edge="1">
                    <mxGeometry width="50" height="50" relative="1" as="geometry">
                        <mxPoint x="360" y="679" as="sourcePoint"/>
                        <mxPoint x="340" y="879" as="targetPoint"/>
                    </mxGeometry>
                </mxCell>
                <mxCell id="42" value="" style="endArrow=classic;html=1;exitX=0.5;exitY=1;exitDx=0;exitDy=0;entryX=0.5;entryY=0;entryDx=0;entryDy=0;" parent="1" source="5" target="32" edge="1">
                    <mxGeometry width="50" height="50" relative="1" as="geometry">
                        <mxPoint x="350" y="859" as="sourcePoint"/>
                        <mxPoint x="350" y="889" as="targetPoint"/>
                    </mxGeometry>
                </mxCell>
                <mxCell id="63" value="" style="endArrow=classic;html=1;exitX=0.5;exitY=0;exitDx=0;exitDy=0;entryX=0.5;entryY=1;entryDx=0;entryDy=0;" parent="1" source="23" target="22" edge="1">
                    <mxGeometry relative="1" as="geometry">
                        <mxPoint x="250" y="670" as="sourcePoint"/>
                        <mxPoint x="350" y="670" as="targetPoint"/>
                    </mxGeometry>
                </mxCell>
                <mxCell id="64" value="NO" style="edgeLabel;resizable=0;html=1;align=center;verticalAlign=middle;" parent="63" connectable="0" vertex="1">
                    <mxGeometry relative="1" as="geometry"/>
                </mxCell>
                <mxCell id="65" value="" style="endArrow=classic;html=1;" parent="1" edge="1">
                    <mxGeometry relative="1" as="geometry">
                        <mxPoint x="340" y="660" as="sourcePoint"/>
                        <mxPoint x="340" y="700" as="targetPoint"/>
                    </mxGeometry>
                </mxCell>
                <mxCell id="66" value="YES" style="edgeLabel;resizable=0;html=1;align=center;verticalAlign=middle;" parent="65" connectable="0" vertex="1">
                    <mxGeometry relative="1" as="geometry"/>
                </mxCell>
            </root>
        </mxGraphModel>
    </diagram>
</mxfile>